<?xml version="1.0" encoding="utf-8"?>
<!-- Generator: Adobe Illustrator 24.0.3, SVG Export Plug-In . SVG Version: 6.00 Build 0)  -->
<svg version="1.1" id="Layer_1" xmlns="http://www.w3.org/2000/svg" xmlns:xlink="http://www.w3.org/1999/xlink" x="0px" y="0px"
	 viewBox="0 0 501 435" style="enable-background:new 0 0 501 435;" xml:space="preserve">
<style type="text/css">
	.st0{fill:#1E274A;}
	.st1{fill:#145586;}
	.st2{fill:#69C0AC;}
	.st3{fill:#02B0A4;}
	.st4{fill:#1F8299;}
	.st5{fill:#0F5569;}
	.st6{fill:url(#SVGID_1_);}
	.st7{fill:#1D1D1B;}
</style>
<g>
	<path class="st0" d="M125.7,274.82L125.7,274.82c-3.03,0-5.48-2.45-5.48-5.48V180.3c0-3.03,2.45-5.48,5.48-5.48h0
		c3.03,0,5.48,2.45,5.48,5.48v89.04C131.17,272.37,128.72,274.82,125.7,274.82z"/>
	<path class="st1" d="M145.62,264.9L145.62,264.9c-3.03,0-5.48-2.45-5.48-5.48V150.38c0-3.03,2.45-5.48,5.48-5.48h0
		c3.03,0,5.48,2.45,5.48,5.48v109.04C151.09,262.45,148.64,264.9,145.62,264.9z"/>
	<path class="st2" d="M165.54,285.16L165.54,285.16c-3.03,0-5.48-2.45-5.48-5.48V150.64c0-3.03,2.45-5.48,5.48-5.48h0
		c3.03,0,5.48,2.45,5.48,5.48v129.04C171.01,282.7,168.56,285.16,165.54,285.16z"/>
	<path class="st3" d="M185.46,255.16L185.46,255.16c-3.03,0-5.48-2.45-5.48-5.48V100.64c0-3.03,2.45-5.48,5.48-5.48h0
		c3.03,0,5.48,2.45,5.48,5.48v149.04C190.93,252.7,188.48,255.16,185.46,255.16z"/>
	<path class="st4" d="M205.38,285.16L205.38,285.16c-3.03,0-5.48-2.45-5.48-5.48V110.64c0-3.03,2.45-5.48,5.48-5.48h0
		c3.03,0,5.48,2.45,5.48,5.48v169.04C210.86,282.7,208.4,285.16,205.38,285.16z"/>
	<path class="st5" d="M225.3,255.16L225.3,255.16c-3.03,0-5.48-2.45-5.48-5.48V60.64c0-3.03,2.45-5.48,5.48-5.48h0
		c3.03,0,5.48,2.45,5.48,5.48v189.04C230.78,252.7,228.32,255.16,225.3,255.16z"/>
	<path class="st0" d="M364.74,274.82L364.74,274.82c3.03,0,5.48-2.45,5.48-5.48V180.3c0-3.03-2.45-5.48-5.48-5.48l0,0
		c-3.03,0-5.48,2.45-5.48,5.48v89.04C359.26,272.37,361.71,274.82,364.74,274.82z"/>
	<path class="st1" d="M344.82,264.9L344.82,264.9c3.03,0,5.48-2.45,5.48-5.48V150.38c0-3.03-2.45-5.48-5.48-5.48l0,0
		c-3.03,0-5.48,2.45-5.48,5.48v109.04C339.34,262.45,341.79,264.9,344.82,264.9z"/>
	<path class="st2" d="M324.9,285.16L324.9,285.16c3.03,0,5.48-2.45,5.48-5.48V150.64c0-3.03-2.45-5.48-5.48-5.48l0,0
		c-3.03,0-5.48,2.45-5.48,5.48v129.04C319.42,282.7,321.87,285.16,324.9,285.16z"/>
	<path class="st3" d="M304.98,255.16L304.98,255.16c3.03,0,5.48-2.45,5.48-5.48V100.64c0-3.03-2.45-5.48-5.48-5.48l0,0
		c-3.03,0-5.48,2.45-5.48,5.48v149.04C299.5,252.7,301.95,255.16,304.98,255.16z"/>
	<path class="st4" d="M285.06,285.16L285.06,285.16c3.03,0,5.48-2.45,5.48-5.48V110.64c0-3.03-2.45-5.48-5.48-5.48l0,0
		c-3.03,0-5.48,2.45-5.48,5.48v169.04C279.58,282.7,282.03,285.16,285.06,285.16z"/>
	<path class="st5" d="M265.14,255.16L265.14,255.16c3.03,0,5.48-2.45,5.48-5.48V60.64c0-3.03-2.45-5.48-5.48-5.48l0,0
		c-3.03,0-5.48,2.45-5.48,5.48v189.04C259.66,252.7,262.11,255.16,265.14,255.16z"/>
	
		<linearGradient id="SVGID_1_" gradientUnits="userSpaceOnUse" x1="4518.978" y1="-4115.2153" x2="4718.978" y2="-4115.2153" gradientTransform="matrix(4.489700e-11 -1 1 4.489700e-11 4360.1914 4774.1357)">
		<stop  offset="0" style="stop-color:#1E274A"/>
		<stop  offset="0.1627" style="stop-color:#145586"/>
		<stop  offset="0.3231" style="stop-color:#69C0AC"/>
		<stop  offset="0.4906" style="stop-color:#02B0A4"/>
		<stop  offset="0.6586" style="stop-color:#1D859A"/>
		<stop  offset="0.82" style="stop-color:#1F8299"/>
		<stop  offset="1" style="stop-color:#0F5569"/>
	</linearGradient>
	<path class="st6" d="M250.45,60.64v189.04c0,3.03-2.45,5.48-5.48,5.48h0c-3.03,0-5.48-2.45-5.48-5.48V60.64
		c0-3.03,2.45-5.48,5.48-5.48h0C248,55.16,250.45,57.61,250.45,60.64z"/>
</g>
<g>
	<path class="st7" d="M63.04,295.08h7.93l2.73,11.62h19.41v10.25H75.68v41.22c0,6.7,2.89,10.05,8.68,10.05h8.75v10.25H81.08
		c-12.03,0-18.05-6.45-18.05-19.35V295.08z"/>
	<path class="st7" d="M105.76,342.59c0-23.93,11.39-35.89,34.18-35.89c22.79,0,34.18,11.96,34.18,35.89
		c0,23.88-11.39,35.82-34.18,35.82C117.25,378.41,105.85,366.47,105.76,342.59z M139.94,368.23c14.36,0,20.53-8.64,20.53-25.91
		c0-16.91-6.18-25.36-20.53-25.36s-20.53,8.45-20.53,25.36C119.41,359.59,125.59,368.23,139.94,368.23z"/>
	<path class="st7" d="M191.21,378.48V306.7h8.54l2.26,9.16c6.29-6.11,13.85-9.16,22.7-9.16v10.53c-8.57,0-15.52,3.03-20.85,9.09
		v52.16H191.21z"/>
	<path class="st7" d="M251.37,278.13v2.09c0,2.73-2.21,4.94-4.94,4.94h-2.77c-2.73,0-4.94-2.21-4.94-4.94v-2.09
		c0-2.73,2.21-4.94,4.94-4.94h2.77C249.16,273.19,251.37,275.41,251.37,278.13z M251.37,306.7v71.78h-12.65V306.7H251.37z"/>
	<path class="st7" d="M272.56,378.06v-9.94c0,0,16.95,0.1,25.57,0.1c11.44,0,17.16-3.42,17.16-10.25c0-6.38-3.99-9.57-11.96-9.57
		h-10.25c-15.5,0-23.24-7.06-23.24-21.19c0-13.67,9.96-20.51,29.87-20.51c8.57,0,25.5,0.42,25.5,0.42v9.94c0,0-16.93-0.1-25.5-0.1
		c-11.94,0-17.91,3.42-17.91,10.25c0,6.38,3.76,9.57,11.28,9.57h10.25c16.41,0,24.61,7.06,24.61,21.19
		c0,13.67-9.94,20.51-29.8,20.51C289.51,378.48,272.56,378.06,272.56,378.06z"/>
	<path class="st7" d="M345.02,295.08h7.93l2.73,11.62h19.41v10.25h-17.43v41.22c0,6.7,2.89,10.05,8.68,10.05h8.75v10.25h-12.03
		c-12.03,0-18.05-6.45-18.05-19.35V295.08z"/>
	<path class="st7" d="M382.62,306.7h13.74l20.3,46.05l15.99-46.05h13.4l-28.11,84.15L394.45,391l0.15-10.96
		c0,0,13.79-0.34,15.28-0.57c4.47-0.7,1.69-7.06,0-11.25L382.62,306.7z"/>
</g>
</svg>
